<svg width="20" height="20" viewBox="0 0 20 20" xmlns="http://www.w3.org/2000/svg">
<path fill-rule="evenodd" clip-rule="evenodd" d="M9.16667 2.50016H3.75C3.05964 2.50016 2.5 3.05981 2.5 3.75016V12.9168C2.5 13.6072 3.05964 14.1668 3.75 14.1668H5.76921L4.22625 18.0242C4.05532 18.4515 4.26317 18.9365 4.69049 19.1074C5.11781 19.2784 5.60278 19.0705 5.77371 18.6432L6.23093 17.5002H13.7691L14.2263 18.6432C14.3972 19.0705 14.8822 19.2784 15.3095 19.1074C15.7368 18.9365 15.9447 18.4515 15.7737 18.0242L14.2308 14.1668H16.25C16.9404 14.1668 17.5 13.6072 17.5 12.9168V3.75016C17.5 3.05981 16.9404 2.50016 16.25 2.50016H10.8333V1.66683C10.8333 1.20659 10.4602 0.833496 10 0.833496C9.53976 0.833496 9.16667 1.20659 9.16667 1.66683V2.50016ZM7.44038 14.4765C7.48104 14.3749 7.50026 14.27 7.5002 14.1668H12.4998C12.4997 14.27 12.519 14.3749 12.5596 14.4765L13.1024 15.8335H6.8976L7.44038 14.4765ZM4.16667 4.16683V12.5002H15.8333V4.16683H4.16667Z" />
</svg>
