<svg width="20" height="20" viewBox="0 0 20 20" xmlns="http://www.w3.org/2000/svg">
<path fill-rule="evenodd" clip-rule="evenodd" d="M6.66683 3.3333C5.74635 3.3333 5.00016 4.07944 5.00016 4.99986V15.8342C4.07969 15.8342 3.3335 15.0881 3.3335 14.1677V4.99986C3.3335 3.15903 4.82588 1.66675 6.66683 1.66675H14.1668C15.0873 1.66675 15.8335 2.41289 15.8335 3.3333V4.99986H14.1668V3.3333H6.66683Z" />
<path fill-rule="evenodd" clip-rule="evenodd" d="M3.3335 5.83159C3.3335 4.91118 4.07969 4.16504 5.00016 4.16504H15.0002C15.9206 4.16504 16.6668 4.91118 16.6668 5.83159V16.6659C16.6668 17.5864 15.9206 18.3325 15.0002 18.3325H5.00016C4.07969 18.3325 3.3335 17.5864 3.3335 16.6659V5.83159ZM15.0002 5.83159H5.00016V16.6659H15.0002V5.83159Z" />
<path fill-rule="evenodd" clip-rule="evenodd" d="M8.3348 4.16504C8.79504 4.16504 9.16813 4.53811 9.16813 4.99832V10.8313C9.16813 11.2915 8.79504 11.6645 8.3348 11.6645C7.87456 11.6645 7.50146 11.2915 7.50146 10.8313V4.99832C7.50146 4.53811 7.87456 4.16504 8.3348 4.16504Z" />
</svg>
