<svg width="20" height="20" viewBox="0 0 20 20" xmlns="http://www.w3.org/2000/svg">
<path fill-rule="evenodd" clip-rule="evenodd" d="M5.83366 2.49984C5.83366 2.0396 6.20675 1.6665 6.66699 1.6665C7.12723 1.6665 7.50033 2.0396 7.50033 2.49984V2.55192H12.5003V2.49984C12.5003 2.0396 12.8734 1.6665 13.3337 1.6665C13.7939 1.6665 14.167 2.0396 14.167 2.49984V2.55192H15.8337C17.2144 2.55192 18.3337 3.67121 18.3337 5.05192V15.7811C18.3337 17.1618 17.2144 18.2811 15.8337 18.2811H4.16699C2.78628 18.2811 1.66699 17.1618 1.66699 15.7811V5.05192C1.66699 3.67121 2.78628 2.55192 4.16699 2.55192H5.83366V2.49984ZM12.5003 4.21859V4.99984C12.5003 5.46007 12.8734 5.83317 13.3337 5.83317C13.7939 5.83317 14.167 5.46007 14.167 4.99984V4.21859H15.8337C16.2939 4.21859 16.667 4.59168 16.667 5.05192V7.49984H3.33366V5.05192C3.33366 4.59168 3.70675 4.21859 4.16699 4.21859H5.83366V4.99984C5.83366 5.46007 6.20675 5.83317 6.66699 5.83317C7.12723 5.83317 7.50033 5.46007 7.50033 4.99984V4.21859H12.5003ZM3.33366 9.1665V15.7811C3.33366 16.2413 3.70676 16.6144 4.16699 16.6144H15.8337C16.2939 16.6144 16.667 16.2413 16.667 15.7811V9.1665H3.33366Z" />
</svg>
