<svg width="20" height="20" viewBox="0 0 20 20" xmlns="http://www.w3.org/2000/svg">
<g clip-path="url(#clip0_1425_1624)">
<path fill-rule="evenodd" clip-rule="evenodd" d="M8.89024 1.07741C9.21574 0.752086 9.74333 0.752207 10.0687 1.07768L12.3913 3.40115C12.5061 3.22376 12.6411 3.05575 12.7963 2.90049C13.9847 1.71211 15.9115 1.71211 17.0998 2.90049C18.2882 4.08887 18.2882 6.01562 17.0998 7.204C16.9446 7.35926 16.7766 7.49426 16.5992 7.609L18.9226 9.93163C19.079 10.0879 19.1668 10.2998 19.1668 10.5209C19.1669 10.7419 19.0791 10.9539 18.9228 11.1102L16.4903 13.5432C16.299 13.7345 16.0268 13.8211 15.7601 13.7754C15.4934 13.7296 15.2656 13.5572 15.149 13.3131C15.0839 13.1767 14.9945 13.048 14.8797 12.9332C14.3421 12.3957 13.4707 12.3957 12.9332 12.9332C12.3957 13.4707 12.3957 14.3421 12.9332 14.8797C13.048 14.9945 13.1767 15.0839 13.3131 15.149C13.5572 15.2656 13.7296 15.4934 13.7754 15.7601C13.8211 16.0268 13.7345 16.299 13.5432 16.4903L11.1102 18.9228C10.7847 19.2482 10.2571 19.2482 9.93174 18.9227L7.60868 16.5997C7.49402 16.7769 7.35911 16.9447 7.204 17.0998C6.01562 18.2882 4.08887 18.2882 2.90049 17.0998C1.71211 15.9115 1.71211 13.9847 2.90049 12.7963C3.0556 12.6412 3.22345 12.5063 3.40066 12.3916L1.07758 10.0686C0.752201 9.74321 0.752126 9.2157 1.07741 8.89024L3.50963 6.45666C3.70094 6.26525 3.97328 6.17865 4.24001 6.22443C4.50673 6.2702 4.73462 6.44265 4.85116 6.68689C4.9163 6.82342 5.0057 6.95219 5.12067 7.06716C5.65818 7.60466 6.52965 7.60466 7.06716 7.06716C7.60466 6.52965 7.60466 5.65818 7.06716 5.12067C6.95219 5.00571 6.82342 4.9163 6.68689 4.85116C6.44265 4.73462 6.2702 4.50673 6.22443 4.24001C6.17865 3.97328 6.26525 3.70094 6.45666 3.50963L8.89024 1.07741ZM8.31255 4.01114C9.43362 5.20397 9.41132 7.08001 8.24567 8.24567C7.08002 9.41132 5.20397 9.43361 4.01114 8.31255L2.84518 9.47916L5.51856 12.1525C5.75098 12.3849 5.82507 12.7322 5.70774 13.0393C5.59041 13.3463 5.30357 13.5557 4.97539 13.5738C4.64835 13.5919 4.32865 13.7252 4.079 13.9748C3.54149 14.5123 3.54149 15.3838 4.079 15.9213C4.61651 16.4588 5.48798 16.4588 6.02549 15.9213C6.27514 15.6717 6.40838 15.352 6.42649 15.0249C6.44467 14.6968 6.65404 14.4099 6.96107 14.2926C7.26809 14.1753 7.6154 14.2493 7.84781 14.4818L10.5211 17.155L11.6875 15.9889C10.5667 14.796 10.5891 12.9202 11.7547 11.7547C12.9202 10.5891 14.796 10.5667 15.9889 11.6875L17.1549 10.5212L14.4808 7.84797C14.2483 7.61553 14.1741 7.26811 14.2916 6.96101C14.409 6.65391 14.696 6.44455 15.0243 6.42653C15.3515 6.40857 15.6715 6.27531 15.9213 6.02549C16.4588 5.48798 16.4588 4.61651 15.9213 4.079C15.3838 3.54149 14.5123 3.54149 13.9748 4.079C13.725 4.32882 13.5918 4.64878 13.5738 4.97606C13.5558 5.30435 13.3464 5.59135 13.0393 5.70877C12.7322 5.82618 12.3848 5.75206 12.1524 5.51954L9.47906 2.84528L8.31255 4.01114Z" />
</g>
<defs>
<clipPath id="clip0_1425_1624">
<rect width="20" height="20" fill="white"/>
</clipPath>
</defs>
</svg>
