<svg width="20" height="20" viewBox="0 0 20 20" xmlns="http://www.w3.org/2000/svg">
<g clip-path="url(#clip0_1425_984)">
<path fill-rule="evenodd" clip-rule="evenodd" d="M2.50016 10.0002C2.50016 14.1423 5.85803 17.5002 10.0002 17.5002C14.1423 17.5002 17.5002 14.1423 17.5002 10.0002C17.5002 5.85803 14.1423 2.50016 10.0002 2.50016C5.85803 2.50016 2.50016 5.85803 2.50016 10.0002ZM10.0002 0.833496C4.93755 0.833496 0.833496 4.93755 0.833496 10.0002C0.833496 15.0628 4.93755 19.1668 10.0002 19.1668C15.0628 19.1668 19.1668 15.0628 19.1668 10.0002C19.1668 4.93755 15.0628 0.833496 10.0002 0.833496Z" />
<path fill-rule="evenodd" clip-rule="evenodd" d="M7.39583 6.66667C6.99313 6.66667 6.66667 6.99313 6.66667 7.39583C6.66667 7.79854 6.99313 8.125 7.39583 8.125C7.79854 8.125 8.125 7.79854 8.125 7.39583C8.125 6.99313 7.79854 6.66667 7.39583 6.66667ZM5 7.39583C5 6.07265 6.07265 5 7.39583 5C8.71901 5 9.79167 6.07265 9.79167 7.39583C9.79167 8.71902 8.71901 9.79167 7.39583 9.79167C6.07265 9.79167 5 8.71902 5 7.39583ZM13.098 6.89365C13.4234 7.21909 13.4234 7.74672 13.098 8.07216L7.77961 13.3906C7.45417 13.716 6.92653 13.716 6.6011 13.3906C6.27566 13.0651 6.27565 12.5375 6.60109 12.2121L11.9194 6.89366C12.2449 6.56822 12.7725 6.56822 13.098 6.89365ZM12.6042 11.875C12.2015 11.875 11.875 12.2015 11.875 12.6042C11.875 13.0069 12.2015 13.3333 12.6042 13.3333C13.0069 13.3333 13.3333 13.0069 13.3333 12.6042C13.3333 12.2015 13.0069 11.875 12.6042 11.875ZM10.2083 12.6042C10.2083 11.281 11.281 10.2083 12.6042 10.2083C13.9273 10.2083 15 11.281 15 12.6042C15 13.9273 13.9273 15 12.6042 15C11.281 15 10.2083 13.9273 10.2083 12.6042Z" />
</g>
<defs>
<clipPath id="clip0_1425_984">
<rect width="20" height="20" fill="white"/>
</clipPath>
</defs>
</svg>
