<svg width="20" height="20" viewBox="0 0 20 20" xmlns="http://www.w3.org/2000/svg">
<path fill-rule="evenodd" clip-rule="evenodd" d="M10.5189 3.62548C10.4937 3.58801 10.4678 3.55043 10.4415 3.5128C9.90244 2.74368 8.92953 1.6665 7.55602 1.6665C6.3125 1.6665 5.50891 2.28805 5.04362 2.891C4.81672 3.18502 4.66802 3.47509 4.57559 3.69069C4.52892 3.79953 4.49533 3.89237 4.47252 3.96135C4.46108 3.99593 4.45227 4.02478 4.44581 4.04693C4.44257 4.05802 4.43992 4.06746 4.43782 4.07514L4.43507 4.08532L4.434 4.0894L4.43354 4.09118L4.43312 4.09279L4.40799 4.25671L4.40792 4.25821L4.40776 4.26131L4.40747 4.26802L4.40697 4.28334C4.40668 4.2944 4.40652 4.30715 4.40658 4.32148C4.40672 4.35011 4.40778 4.38527 4.41071 4.42605C4.41656 4.50735 4.42999 4.61283 4.45921 4.73451C4.47884 4.81621 4.50571 4.9056 4.54227 4.99984H2.9165C2.22615 4.99984 1.6665 5.55948 1.6665 6.24984V9.58317C1.6665 10.1274 2.01434 10.5904 2.49984 10.762V17.0832C2.49984 17.7735 3.05948 18.3332 3.74984 18.3332H16.2498C16.9402 18.3332 17.4998 17.7735 17.4998 17.0832V10.762C17.9853 10.5904 18.3332 10.1274 18.3332 9.58317V6.24984C18.3332 5.55948 17.7735 4.99984 17.0832 4.99984H15.5368C15.54 4.98789 15.5429 4.97611 15.5457 4.96449C15.5719 4.85558 15.584 4.76073 15.5893 4.68688C15.592 4.64982 15.593 4.61758 15.5931 4.59095C15.5931 4.57762 15.593 4.56563 15.5927 4.55509L15.5922 4.54035L15.5919 4.5338L15.5918 4.53072L15.5917 4.52924L15.5664 4.36454L15.5657 4.36199L15.5647 4.35808L15.5621 4.34858L15.5549 4.32306C15.5491 4.30324 15.5414 4.27784 15.5314 4.24763C15.5114 4.18739 15.4824 4.10705 15.4421 4.01321C15.3625 3.8276 15.2344 3.57752 15.0384 3.32349C14.6348 2.80052 13.9341 2.25895 12.8552 2.25895C11.7764 2.25895 10.9923 3.01115 10.5189 3.62548ZM7.8648 4.99984C8.54667 4.99984 9.03448 4.97682 9.37969 4.94625C9.29083 4.79263 9.18944 4.63033 9.07661 4.46933C8.57053 3.74722 8.03518 3.33317 7.55602 3.33317C6.94687 3.33317 6.59254 3.6119 6.36308 3.90923C6.2426 4.06535 6.15972 4.22541 6.10741 4.34742C6.10175 4.36062 6.09651 4.37324 6.09167 4.3852C6.1062 4.42615 6.132 4.47869 6.17862 4.53492C6.28623 4.66473 6.66452 4.99984 7.8648 4.99984ZM3.33317 6.6665V9.1665H16.6665V6.6665H12.6516L12.6012 6.6667L12.5005 6.6665H3.33317ZM11.6075 4.97418C11.645 4.91531 11.6846 4.85593 11.726 4.79682C12.1392 4.20719 12.5406 3.92562 12.8552 3.92562C13.2997 3.92562 13.5512 4.12437 13.7189 4.34172C13.799 4.44548 13.8573 4.55238 13.8969 4.63961C13.8906 4.64957 13.883 4.66019 13.8738 4.67128C13.8235 4.73204 13.5691 4.99175 12.6456 4.99984H12.5045C12.1353 4.99835 11.8409 4.98837 11.6075 4.97418ZM15.8332 10.8332H4.1665V16.6665H15.8332V10.8332Z"/>
</svg>
