<svg width="20" height="20" viewBox="0 0 20 20" xmlns="http://www.w3.org/2000/svg">
<g clip-path="url(#clip0_1425_1749)">
<path fill-rule="evenodd" clip-rule="evenodd" d="M6.17284 5.9055C5.87257 5.77146 5.52156 5.82652 5.27676 6.04606L5.27306 6.04947C5.25261 6.06834 5.20261 6.11445 5.17421 6.14147C5.11366 6.19909 5.02872 6.28176 4.92619 6.38648C4.72164 6.5954 4.44436 6.89484 4.14993 7.26056C3.57376 7.97628 2.8765 9.01333 2.58453 10.1649C2.35865 11.0559 2.19075 11.8852 2.31608 12.6751C2.42763 13.3781 2.75428 13.9708 3.28185 14.5386C2.41307 15.6177 1.63492 16.7418 0.947985 17.911C0.714834 18.3078 0.847505 18.8185 1.24432 19.0516C1.64113 19.2848 2.15181 19.1521 2.38496 18.7553C3.02484 17.6662 3.75035 16.6165 4.56207 15.6061C5.00363 15.8831 5.47471 16.0865 5.98745 16.1934C6.88397 16.3803 7.81357 16.2524 8.80916 15.8571C8.82731 15.8499 8.84521 15.8421 8.86281 15.8336C9.90912 15.3304 11.3615 14.4529 12.527 13.7196C13.1153 13.3494 13.6404 13.0097 14.0183 12.7626C14.2074 12.639 14.3598 12.5384 14.4652 12.4685L14.5868 12.3878L14.6292 12.3595L14.6301 12.3589C14.8373 12.2202 14.9715 11.9959 14.9958 11.7477C15.0202 11.4996 14.9321 11.2535 14.7557 11.0772C14.504 10.8255 14.4692 10.6315 14.4874 10.4523C14.5115 10.2162 14.6447 9.9032 14.9276 9.49567C15.2053 9.09562 15.5659 8.68863 15.9554 8.25201L15.9897 8.21359C16.3508 7.80891 16.7477 7.36411 17.0353 6.93537C17.9464 5.57718 18.6244 4.09996 19.0391 3.08407C19.5154 1.9171 18.586 0.639292 17.2846 0.856315C16.0055 1.06965 13.9849 1.51199 12.1986 2.37991C10.0854 3.40668 8.56887 4.37608 7.2019 6.65437C7.0371 6.92904 6.91594 7.00097 6.88592 7.01521C6.85533 7.0006 6.79353 6.95396 6.73727 6.86283C6.68022 6.77042 6.66647 6.69317 6.66647 6.66645C6.66647 6.33762 6.47311 6.03954 6.17284 5.9055ZM13.0048 11.4339C12.8455 11.0679 12.7889 10.6804 12.8294 10.2833C12.896 9.62928 13.2178 9.03599 13.5585 8.54524C13.9025 8.04959 14.3315 7.56878 14.7059 7.14906L14.7117 7.14254C15.1069 6.6995 15.4322 6.33343 15.6512 6.00688C16.4568 4.80598 17.0762 3.47504 17.4711 2.51509C16.2524 2.7233 14.4642 3.13207 12.927 3.87899C10.9583 4.83552 9.76407 5.62349 8.63105 7.51186C8.34192 7.99375 7.97503 8.36912 7.51734 8.55796C7.03838 8.75559 6.5605 8.70674 6.16777 8.51922C5.95096 8.41569 5.76409 8.273 5.60841 8.11163C5.55597 8.1736 5.50239 8.23837 5.44819 8.3057C4.92817 8.95166 4.40501 9.76625 4.20008 10.5745C3.97241 11.4725 3.89627 11.9987 3.96216 12.4139C4.0035 12.6745 4.11001 12.9399 4.37671 13.2612C5.54725 11.9793 7.0631 10.53 8.34795 9.34686C9.11526 8.64027 9.80826 8.02124 10.3095 7.57879C10.5602 7.3575 10.7631 7.1802 10.9036 7.05801C10.906 7.05594 10.9093 7.05295 10.9135 7.04915C11.0192 6.954 11.6908 6.34901 12.2986 6.95675C12.4999 7.15805 12.6569 7.74059 12.1555 8.17847C12.1195 8.20956 12.0662 8.25574 11.9973 8.31563C11.8596 8.43542 11.6598 8.61 11.4124 8.8283C10.9177 9.26504 10.2337 9.87605 9.47695 10.5729C8.21487 11.7351 6.7725 13.116 5.66663 14.3203C5.89018 14.4374 6.10882 14.5162 6.3275 14.5618C6.82044 14.6645 7.4043 14.6174 8.16721 14.3187C9.11761 13.8585 10.4828 13.0366 11.6394 12.3089C12.1667 11.9771 12.6428 11.6699 13.0048 11.4339Z" />
</g>
<defs>
<clipPath id="clip0_1425_1749">
<rect width="20" height="20" fill="white"/>
</clipPath>
</defs>
</svg>
